<svg width="204" height="50" viewBox="0 0 204 50" fill="none" xmlns="http://www.w3.org/2000/svg">
<g clip-path="url(#clip0)">
<path fill-rule="evenodd" clip-rule="evenodd" d="M42.8399 7.47531C39.3729 3.94947 34.9385 1.53055 30.0972 0.524281C25.2558 -0.481985 20.2248 -0.0304303 15.64 1.82187C11.0553 3.67418 7.12249 6.84409 4.33881 10.931C1.55514 15.0178 0.0455034 19.8382 0.000716066 24.7828C-0.0426167 29.7274 1.3816 34.5738 4.09319 38.7088C6.80478 42.8439 10.6819 46.0817 15.234 48.0128C19.7863 49.9446 24.8091 50.4837 29.6676 49.5618C34.5262 48.64 39.0024 46.2986 42.5307 42.8336C47.2548 38.1827 49.9405 31.8475 49.9985 25.2184C50.0565 18.5894 47.4819 12.2081 42.8399 7.47531ZM36.084 11.4545L38.7749 14.1911C38.9329 14.3524 39.0205 14.5697 39.0184 14.7955C39.0164 15.0212 38.9249 15.2369 38.764 15.3953L25.5974 28.3336C25.5175 28.4121 25.4229 28.4741 25.3191 28.516C25.2153 28.558 25.1042 28.579 24.9922 28.578C24.8802 28.577 24.7696 28.554 24.6665 28.5102C24.5634 28.4664 24.47 28.4027 24.3915 28.3228L21.7032 25.5928C21.5445 25.4315 21.4565 25.2137 21.4583 24.9874C21.4602 24.7611 21.5519 24.5448 21.7132 24.3861L34.8799 11.4511C35.0402 11.2923 35.2571 11.2035 35.4828 11.2043C35.7086 11.205 35.9248 11.2953 36.084 11.4553V11.4545ZM36.6957 36.9003C34.532 39.0255 31.8298 40.5207 28.8799 41.225C25.9299 41.9292 22.8438 41.816 19.9534 40.8975C17.0629 39.979 14.4776 38.2899 12.4754 36.0118C10.4732 33.7338 9.12985 30.953 8.58988 27.9686C8.05056 24.9844 8.33534 21.9096 9.41357 19.0752C10.4918 16.2408 12.3227 13.7541 14.709 11.8828C17.0954 10.0108 19.947 8.82483 22.957 8.45232C25.967 8.07981 29.0217 8.5349 31.7924 9.76864C31.9194 9.82432 32.0309 9.91015 32.1173 10.0187C32.2036 10.1272 32.2622 10.2552 32.2879 10.3915C32.3136 10.5278 32.3056 10.6683 32.2647 10.8008C32.2239 10.9333 32.1512 11.0539 32.0532 11.152L29.0857 14.1353C28.9764 14.2452 28.8392 14.3232 28.6888 14.361C28.5385 14.3987 28.3806 14.3947 28.2324 14.3495C26.0217 13.6768 23.6566 13.7079 21.4643 14.4384C19.2721 15.1689 17.3611 16.5627 15.9957 18.427C14.9754 19.8204 14.293 21.432 14.0026 23.1344C13.7121 24.8368 13.8215 26.5835 14.3222 28.2364C14.8228 29.8893 15.7009 31.4031 16.8872 32.6583C18.0735 33.9135 19.5354 34.8756 21.1574 35.4686C22.7792 36.0619 24.5167 36.2701 26.2328 36.0768C27.9488 35.8836 29.5965 35.2943 31.0458 34.3553C32.4951 33.4163 33.7064 32.1533 34.5841 30.6661C35.4618 29.1788 35.9818 27.5079 36.1032 25.7853C36.1166 25.571 36.2104 25.3697 36.3658 25.2215C36.5212 25.0733 36.7268 24.9893 36.9415 24.9861H40.7932C40.908 24.9863 41.0216 25.0096 41.1273 25.0546C41.2329 25.0997 41.3283 25.1655 41.4079 25.2483C41.4875 25.3311 41.5495 25.429 41.5904 25.5363C41.6313 25.6436 41.6501 25.7581 41.6457 25.8728C41.4382 30.0395 39.6715 33.9753 36.6957 36.9003Z" fill="white"/>
<path d="M65 43.8529V30.607C65 30.4937 65.0224 30.3814 65.066 30.2767C65.1096 30.172 65.1735 30.077 65.254 29.9972C65.3345 29.9173 65.43 29.8541 65.535 29.8114C65.64 29.7686 65.7524 29.747 65.8658 29.7479H79.425C79.5102 29.7469 79.5947 29.7628 79.6737 29.7948C79.7527 29.8268 79.8245 29.8742 79.885 29.9343C79.9455 29.9943 79.9935 30.0658 80.0261 30.1445C80.0587 30.2232 80.0753 30.3077 80.075 30.3929V30.4829C80.0748 30.5677 80.0579 30.6516 80.0251 30.7299C79.9924 30.8081 79.9445 30.8791 79.8841 30.9387C79.7622 31.0597 79.5975 31.1277 79.4258 31.1279H66.7416V36.3745H77.2033C77.3758 36.3745 77.5408 36.442 77.6625 36.5637C77.7537 36.6536 77.8159 36.7688 77.8412 36.8943C77.8665 37.0199 77.8537 37.1501 77.8045 37.2684C77.7552 37.3866 77.6717 37.4874 77.5648 37.5579C77.4578 37.6283 77.3322 37.6652 77.2041 37.6637H66.7416V43.3887H79.425C79.5966 43.3885 79.7614 43.4562 79.8833 43.577C79.9435 43.6367 79.9912 43.7077 80.0238 43.786C80.0565 43.8642 80.0733 43.9481 80.0733 44.0329V44.0929C80.0734 44.1778 80.0566 44.2618 80.024 44.3402C79.9914 44.4186 79.9436 44.4898 79.8833 44.5495C79.7613 44.6702 79.5966 44.7379 79.425 44.7379H65.865C65.7492 44.7378 65.6346 44.7147 65.5279 44.6699C65.4212 44.6251 65.3244 44.5596 65.2433 44.477C65.1628 44.3946 65.0996 44.2967 65.0577 44.1894C65.0157 44.082 64.9958 43.9673 64.9991 43.852L65 43.8529ZM85.5425 43.2504C86.7133 40.7187 86.8025 37.4087 86.8025 34.0404V30.6012C86.8025 30.3729 86.8933 30.1537 87.0558 29.9929C87.2183 29.832 87.4383 29.7412 87.6683 29.7412H101.727C101.957 29.7412 102.177 29.832 102.339 29.9929C102.502 30.1545 102.592 30.3729 102.592 30.6012V43.2445H103.738C103.967 43.2448 104.186 43.3352 104.348 43.4963C104.51 43.6574 104.602 43.876 104.604 44.1045V46.3012C104.604 46.5287 104.512 46.7479 104.35 46.9095C104.187 47.0705 103.967 47.1606 103.738 47.1604H103.707C103.48 47.1578 103.263 47.0663 103.102 46.9054C102.943 46.7449 102.853 46.5277 102.852 46.3012V44.7062H85.3933V46.3012C85.3933 46.5287 85.3016 46.7479 85.1391 46.9095C84.9762 47.0705 84.7564 47.1606 84.5275 47.1604C84.2999 47.158 84.0824 47.0664 83.9216 46.9054C83.762 46.7448 83.6724 46.5276 83.6725 46.3012V44.1104C83.6725 43.8829 83.7633 43.6637 83.9258 43.502C84.0883 43.3412 84.3083 43.2504 84.5383 43.2504H85.5425ZM100.882 43.2504V31.2137H88.5358V34.0445C88.5358 37.4429 88.445 40.7229 87.2741 43.2554L100.882 43.2504ZM123.678 40.7187H112.39L109.985 44.3554C109.912 44.4656 109.813 44.556 109.697 44.6182C109.58 44.6805 109.45 44.7128 109.318 44.712C109.174 44.7116 109.033 44.6725 108.91 44.5989C108.786 44.5253 108.684 44.4199 108.615 44.2937C108.548 44.1673 108.515 44.0249 108.522 43.8818C108.529 43.7386 108.574 43.5999 108.653 43.4804L117.371 30.497C117.444 30.388 117.542 30.2986 117.658 30.2371C117.774 30.1756 117.903 30.1438 118.034 30.1445C118.165 30.1444 118.294 30.1765 118.41 30.2382C118.526 30.2998 118.624 30.389 118.697 30.4979L127.414 43.4812C127.474 43.5704 127.515 43.6709 127.535 43.7765C127.555 43.8822 127.553 43.9908 127.529 44.0956C127.505 44.2004 127.46 44.2991 127.396 44.3858C127.333 44.4725 127.252 44.5452 127.159 44.5995C126.983 44.7047 126.773 44.738 126.572 44.6926C126.372 44.6471 126.197 44.5264 126.083 44.3554L123.678 40.7187ZM113.321 39.317H122.747L118.035 32.192L113.321 39.317Z" fill="white"/>
<path fill-rule="evenodd" clip-rule="evenodd" d="M200.988 3.96301L202.337 5.25217L202.382 5.31301C202.778 5.71967 203.017 6.25301 203.056 6.81717V14.9405C203.018 15.5016 202.788 16.0326 202.406 16.4447L201.077 17.7563C200.635 18.1279 200.088 18.3533 199.512 18.4013H186.849L186.754 3.33301H199.421C199.999 3.36011 200.552 3.58214 200.988 3.96301ZM197.402 15.8047C197.417 15.7671 197.423 15.7267 197.421 15.6863V6.04384C197.422 6.00348 197.414 5.96342 197.398 5.92634C197.382 5.88926 197.358 5.85602 197.328 5.82884C197.27 5.7726 197.193 5.74096 197.112 5.74051H192.726C192.665 5.74066 192.606 5.7584 192.556 5.79155C192.505 5.82469 192.466 5.87182 192.442 5.92717C192.426 5.9642 192.419 6.00381 192.418 6.04384V15.6855C192.426 15.7668 192.464 15.8423 192.523 15.8984C192.582 15.9544 192.66 15.9871 192.742 15.9905H197.107C197.149 15.9932 197.19 15.9874 197.229 15.9735C197.268 15.9596 197.304 15.9379 197.334 15.9097C197.363 15.8795 197.386 15.8438 197.402 15.8047ZM182.708 3.46634H179.576C179.412 3.46487 179.25 3.49398 179.098 3.55217C178.947 3.61061 178.81 3.69843 178.693 3.81051C178.577 3.91884 178.485 4.0499 178.421 4.19555C178.358 4.34121 178.325 4.49834 178.325 4.65717V10.8905L172.422 3.83801C172.3 3.71205 172.152 3.61325 171.989 3.54801C171.821 3.48282 171.641 3.45358 171.461 3.46217H168.322C167.994 3.45692 167.676 3.58044 167.438 3.80634C167.322 3.91513 167.23 4.04634 167.167 4.19193C167.104 4.33752 167.072 4.49441 167.072 4.65301V17.308C167.07 17.4688 167.102 17.6282 167.165 17.7762C167.228 17.9241 167.321 18.0575 167.438 18.168C167.675 18.3947 167.993 18.5213 168.322 18.5205H171.452C171.783 18.5213 172.101 18.3955 172.34 18.168C172.456 18.057 172.549 17.9235 172.611 17.7757C172.674 17.6278 172.706 17.4687 172.706 17.308V7.98634L178.333 14.6505V17.2555C178.333 17.4163 178.366 17.5755 178.429 17.7233C178.493 17.8711 178.585 18.0046 178.702 18.1155C178.939 18.343 179.257 18.4688 179.587 18.468H182.717C183.046 18.4686 183.363 18.3424 183.602 18.1155C183.718 18.0043 183.811 17.8708 183.873 17.723C183.936 17.5751 183.969 17.4161 183.968 17.2555V4.59717C183.96 4.44197 183.921 4.28999 183.853 4.15007C183.785 4.01015 183.691 3.88509 183.574 3.78217C183.336 3.57154 183.026 3.45847 182.708 3.46551V3.46634ZM164.283 4.61217V17.2538C164.284 17.4144 164.252 17.5733 164.189 17.721C164.126 17.8687 164.034 18.0021 163.918 18.113C163.679 18.3399 163.362 18.4662 163.033 18.4655H149.259C148.929 18.4666 148.611 18.3404 148.372 18.113C148.256 18.0017 148.164 17.8682 148.101 17.7204C148.038 17.5726 148.006 17.4136 148.006 17.253V4.61134C148.005 4.45081 148.038 4.29185 148.1 4.14415C148.163 3.99644 148.256 3.86308 148.372 3.75217C148.611 3.52488 148.929 3.39864 149.259 3.39967H163.033C163.363 3.39967 163.679 3.52551 163.918 3.75217C164.034 3.86318 164.126 3.99667 164.189 4.14453C164.252 4.29238 164.284 4.4515 164.283 4.61217ZM158.558 15.9588C158.587 15.931 158.61 15.8976 158.626 15.8607C158.641 15.8237 158.649 15.784 158.649 15.7438V6.10384C158.649 6.06372 158.641 6.02397 158.626 5.987C158.61 5.95004 158.587 5.91664 158.558 5.88884C158.5 5.8326 158.423 5.80096 158.342 5.80051H153.965C153.904 5.80048 153.845 5.81802 153.795 5.85101C153.744 5.884 153.704 5.93101 153.679 5.98634C153.663 6.02321 153.655 6.06289 153.655 6.10301V15.7463C153.655 15.7866 153.664 15.8264 153.68 15.8634C153.696 15.9003 153.719 15.9337 153.748 15.9613C153.806 16.0177 153.884 16.0494 153.965 16.0497H158.338C158.378 16.0498 158.419 16.0418 158.457 16.0262C158.495 16.0107 158.529 15.9878 158.558 15.9588ZM143.967 3.46634H140.837C140.662 3.46801 140.488 3.50467 140.327 3.57384C140.165 3.63966 140.018 3.7384 139.895 3.86384L134.574 10.1638L129.362 3.93051C129.234 3.77777 129.073 3.6563 128.891 3.57541C128.709 3.49451 128.511 3.45635 128.313 3.46384H125.176C124.847 3.45872 124.529 3.58221 124.29 3.80801C124.175 3.91696 124.083 4.04816 124.02 4.19369C123.956 4.33921 123.923 4.49603 123.923 4.65467V17.3113C123.921 17.4722 123.953 17.6317 124.017 17.7796C124.08 17.9276 124.173 18.0609 124.29 18.1713C124.528 18.398 124.846 18.5247 125.176 18.5238H128.314C128.644 18.5238 128.962 18.3988 129.2 18.1713C129.316 18.0604 129.409 17.9269 129.472 17.7791C129.535 17.6312 129.568 17.4721 129.567 17.3113V7.98634L133.323 12.5005V17.3072C133.323 17.4678 133.355 17.627 133.418 17.7748C133.481 17.9227 133.573 18.0562 133.689 18.1672C133.928 18.3944 134.246 18.5211 134.575 18.5211C134.905 18.5211 135.223 18.3944 135.462 18.1672C135.577 18.0559 135.67 17.9223 135.732 17.7745C135.795 17.6267 135.828 17.4678 135.827 17.3072V12.5072L139.585 7.99301V17.2597C139.584 17.4203 139.617 17.5794 139.68 17.7273C139.742 17.8751 139.835 18.0086 139.951 18.1197C140.189 18.3463 140.507 18.473 140.837 18.4722H143.967C144.297 18.473 144.614 18.3472 144.852 18.1197C144.968 18.0087 145.061 17.8752 145.124 17.7274C145.187 17.5796 145.22 17.4205 145.22 17.2597V4.59717C145.219 4.43843 145.185 4.28158 145.122 4.13598C145.059 3.99039 144.967 3.85901 144.852 3.74967C144.613 3.52408 144.295 3.40086 143.967 3.40634V3.46634ZM119.143 4.03801L120.472 5.32801L120.427 5.35801C120.822 5.76551 121.059 6.29801 121.097 6.86217V15.0905C121.059 15.6557 120.821 16.189 120.427 16.5955L119.095 17.8855C118.652 18.2549 118.105 18.4759 117.53 18.5172H104.868V3.40634H117.578C118.153 3.44801 118.702 3.66884 119.143 4.03801ZM115.42 15.9588C115.449 15.931 115.472 15.8976 115.487 15.8606C115.503 15.8237 115.511 15.784 115.511 15.7438V6.10384C115.511 6.06372 115.503 6.02397 115.488 5.987C115.472 5.95004 115.449 5.91664 115.42 5.88884C115.362 5.8326 115.284 5.80096 115.203 5.80051H110.816C110.756 5.80108 110.697 5.81898 110.646 5.85208C110.596 5.88518 110.556 5.93208 110.532 5.98717C110.516 6.02408 110.508 6.06377 110.508 6.10384V15.7463C110.508 15.7865 110.516 15.8262 110.532 15.8632C110.547 15.9002 110.57 15.9336 110.599 15.9613C110.657 16.0172 110.735 16.0488 110.816 16.0497H115.197C115.238 16.0499 115.279 16.0421 115.317 16.0265C115.356 16.0109 115.391 15.9879 115.42 15.9588ZM91.0917 16.0413H100.798C101.128 16.0413 101.445 16.168 101.683 16.3955C101.799 16.5052 101.891 16.6375 101.954 16.784C102.017 16.9306 102.049 17.0885 102.049 17.248C102.049 17.4075 102.017 17.5654 101.954 17.712C101.891 17.8586 101.799 17.9908 101.683 18.1005C101.445 18.3274 101.128 18.4537 100.798 18.453H86.4125C86.0829 18.4536 85.7657 18.3274 85.5267 18.1005C85.4107 17.9893 85.3185 17.8558 85.2557 17.708C85.1928 17.5602 85.1605 17.4011 85.1608 17.2405V4.61217C85.1603 4.45151 85.1924 4.29241 85.2553 4.14456C85.3182 3.99671 85.4105 3.86321 85.5267 3.75217C85.7657 3.52528 86.0829 3.39906 86.4125 3.39967H100.798C101.128 3.39967 101.445 3.52551 101.683 3.75217C101.8 3.86318 101.892 3.99667 101.955 4.14453C102.018 4.29238 102.05 4.4515 102.049 4.61217V12.8163C102.05 12.977 102.018 13.1361 101.955 13.284C101.892 13.4318 101.8 13.5653 101.683 13.6763C101.445 13.9033 101.128 14.0295 100.798 14.0288H91.0917C91.0109 14.0302 90.9337 14.0624 90.8758 14.1188C90.8491 14.147 90.8277 14.1798 90.8125 14.2155C90.7991 14.252 90.7934 14.2909 90.7958 14.3297V15.7463C90.7919 15.8058 90.807 15.865 90.8391 15.9152C90.8712 15.9655 90.9185 16.0041 90.9742 16.0255C91.0115 16.0406 91.0514 16.0479 91.0917 16.0472V16.0405V16.0413ZM90.8125 5.98301C90.7991 6.01949 90.7934 6.05837 90.7958 6.09717V11.3122C90.7935 11.3512 90.7995 11.3903 90.8133 11.4269C90.827 11.4635 90.8484 11.4968 90.8758 11.5247C90.9331 11.582 91.0107 11.6144 91.0917 11.6147H96.1008C96.1611 11.6131 96.2197 11.5945 96.2699 11.5612C96.3202 11.5279 96.36 11.4812 96.385 11.4263C96.4006 11.3894 96.4086 11.3497 96.4083 11.3097V6.10384C96.4086 6.06372 96.4006 6.02397 96.385 5.987C96.3694 5.95004 96.3464 5.91664 96.3175 5.88884C96.2591 5.83296 96.1817 5.80138 96.1008 5.80051H91.0917C91.0518 5.80023 91.0122 5.80759 90.975 5.82217C90.9384 5.83858 90.9048 5.86112 90.8758 5.88884C90.8488 5.91832 90.8273 5.95249 90.8125 5.98967V5.98301ZM79.8233 14.0138L82.39 17.023V17.1438C82.9533 17.823 82.8233 18.4097 82.0767 18.5297H76.535L72.8267 14.0163H70.6283V17.3163C70.6286 17.4768 70.5962 17.6356 70.5332 17.7832C70.4702 17.9307 70.3778 18.0639 70.2617 18.1747C70.023 18.4018 69.7061 18.5283 69.3767 18.528H66.2517C65.9217 18.528 65.6042 18.4022 65.3658 18.1755C65.2499 18.0643 65.1578 17.9308 65.0949 17.783C65.032 17.6351 64.9997 17.4761 65 17.3155V4.64967C64.9998 4.49066 65.0323 4.33332 65.0957 4.18748C65.1591 4.04165 65.2519 3.91048 65.3683 3.80217C65.6067 3.57683 65.9237 3.45362 66.2517 3.45884H81.2775C81.5967 3.45328 81.9062 3.56846 82.1442 3.78134C82.3758 3.98967 82.5158 4.27967 82.5333 4.58967V12.8172C82.534 12.9781 82.5016 13.1374 82.4382 13.2853C82.3749 13.4332 82.2819 13.5666 82.165 13.6772C81.9267 13.9048 81.6095 14.0311 81.28 14.0297L79.8233 14.0147V14.0138ZM76.8033 11.5272C76.8328 11.4997 76.8563 11.4664 76.8724 11.4294C76.8885 11.3924 76.8967 11.3525 76.8967 11.3122V6.10384C76.8965 6.06354 76.8882 6.0237 76.8721 5.98673C76.8561 5.94977 76.8327 5.91646 76.8033 5.88884C76.7453 5.83245 76.6676 5.80078 76.5867 5.80051H70.9592C70.8986 5.80048 70.8394 5.81802 70.7887 5.85101C70.7379 5.884 70.6979 5.93101 70.6733 5.98634C70.6573 6.02313 70.649 6.06286 70.6492 6.10301V11.3113C70.6484 11.3519 70.6564 11.3921 70.6725 11.4294C70.6886 11.4666 70.7124 11.4999 70.7425 11.5272C70.8008 11.5838 70.8775 11.6163 70.9592 11.6172H76.5875C76.6686 11.6162 76.7462 11.584 76.8042 11.5272H76.8033Z" fill="white"/>
</g>
<defs>
<clipPath id="clip0">
<rect width="203.333" height="50" fill="white"/>
</clipPath>
</defs>
</svg>
