<svg width="19" height="19" viewBox="0 0 19 19" fill="none" xmlns="http://www.w3.org/2000/svg">
<path d="M9.04591 9.99902C7.71983 9.99902 6.44806 9.47224 5.51038 8.53456C4.5727 7.59688 4.04591 6.32511 4.04591 4.99902C4.04591 3.67294 4.5727 2.40117 5.51038 1.46349C6.44806 0.525808 7.71983 -0.000976562 9.04591 -0.000976562C10.372 -0.000976563 11.6438 0.525808 12.5814 1.46349C13.5191 2.40117 14.0459 3.67294 14.0459 4.99902C14.0459 6.32511 13.5191 7.59688 12.5814 8.53456C11.6438 9.47224 10.372 9.99902 9.04591 9.99902ZM9.04591 1.99902C8.65195 1.99902 8.26184 2.07662 7.89786 2.22738C7.53388 2.37815 7.20317 2.59913 6.92459 2.8777C6.64602 3.15628 6.42504 3.487 6.27427 3.85097C6.12351 4.21495 6.04591 4.60506 6.04591 4.99902C6.04591 5.39299 6.12351 5.7831 6.27427 6.14707C6.42504 6.51105 6.64602 6.84177 6.92459 7.12034C7.20317 7.39892 7.53388 7.6199 7.89786 7.77066C8.26184 7.92143 8.65195 7.99902 9.04591 7.99902C9.84156 7.99902 10.6046 7.68295 11.1672 7.12034C11.7298 6.55773 12.0459 5.79467 12.0459 4.99902C12.0459 4.20337 11.7298 3.44031 11.1672 2.8777C10.6046 2.31509 9.84156 1.99902 9.04591 1.99902ZM18.0459 17.699C18.0944 17.8526 18.1051 18.0156 18.077 18.1741C18.049 18.3327 17.9831 18.4822 17.8849 18.6098C17.7868 18.7374 17.6592 18.8395 17.5131 18.9072C17.3671 18.975 17.2068 19.0065 17.0459 18.999H1.04591C0.885056 19.0065 0.724775 18.975 0.578698 18.9072C0.432621 18.8395 0.305069 18.7374 0.206888 18.6098C0.108707 18.4822 0.0428007 18.3327 0.0147743 18.1741C-0.0132522 18.0156 -0.00257016 17.8526 0.045912 17.699C0.69591 15.8378 1.91467 14.228 3.52978 13.0974C5.14489 11.9668 7.07459 11.3727 9.04591 11.399C11.0172 11.3727 12.9469 11.9668 14.562 13.0974C16.1772 14.228 17.3959 15.8378 18.0459 17.699ZM2.54591 16.999H15.5459C14.8687 15.8813 13.9147 14.9571 12.7761 14.3157C11.6375 13.6743 10.3528 13.3373 9.04591 13.3373C7.73906 13.3373 6.4543 13.6743 5.31569 14.3157C4.17708 14.9571 3.22311 15.8813 2.54591 16.999Z" fill="#F33736"/>
</svg>
