<svg width="20" height="19" viewBox="0 0 20 19" fill="none" xmlns="http://www.w3.org/2000/svg">
<path d="M6 14.493C5.76605 14.4977 5.53786 14.4203 5.35514 14.2741C5.17242 14.1279 5.04675 13.9223 5 13.693L2.6 2.99801H1C0.734784 2.99801 0.48043 2.89265 0.292893 2.70511C0.105357 2.51758 0 2.26322 0 1.99801C0 1.73279 0.105357 1.47844 0.292893 1.2909C0.48043 1.10336 0.734784 0.998006 1 0.998006H3.4C3.63395 0.993288 3.86214 1.07076 4.04486 1.21693C4.22758 1.36311 4.35325 1.56873 4.4 1.79801L5.2 4.99801H19C19.2652 4.99801 19.5196 5.10336 19.7071 5.2909C19.8946 5.47844 20 5.73279 20 5.99801V11.793C20.0012 12.0418 19.9097 12.2821 19.7433 12.467C19.5769 12.6519 19.3475 12.7681 19.1 12.793L6.1 14.493H6ZM5.6 6.99801L6.82 12.42L18.02 10.92L18 6.99801H5.6ZM7.7 18.998C7.24913 18.998 6.81673 18.8189 6.49792 18.5001C6.17911 18.1813 6 17.7489 6 17.298C6 16.8471 6.17911 16.4147 6.49792 16.0959C6.81673 15.7771 7.24913 15.598 7.7 15.598C8.15087 15.598 8.58327 15.7771 8.90208 16.0959C9.22089 16.4147 9.4 16.8471 9.4 17.298C9.4 17.7489 9.22089 18.1813 8.90208 18.5001C8.58327 18.8189 8.15087 18.998 7.7 18.998ZM15.8 18.998C15.3491 18.998 14.9167 18.8189 14.5979 18.5001C14.2791 18.1813 14.1 17.7489 14.1 17.298C14.1 16.8471 14.2791 16.4147 14.5979 16.0959C14.9167 15.7771 15.3491 15.598 15.8 15.598C16.2509 15.598 16.6833 15.7771 17.0021 16.0959C17.3209 16.4147 17.5 16.8471 17.5 17.298C17.5 17.7489 17.3209 18.1813 17.0021 18.5001C16.6833 18.8189 16.2509 18.998 15.8 18.998Z" fill="white"/>
</svg>
