<svg width="24" height="24" viewBox="0 0 24 24" fill="none" xmlns="http://www.w3.org/2000/svg">
<path d="M11.993 11.49C11.33 11.49 10.6941 11.2266 10.2253 10.7578C9.75643 10.2889 9.49304 9.65305 9.49304 8.99001C9.49304 8.32696 9.75643 7.69108 10.2253 7.22224C10.6941 6.7534 11.33 6.49001 11.993 6.49001C12.6561 6.49001 13.292 6.7534 13.7608 7.22224C14.2296 7.69108 14.493 8.32696 14.493 8.99001C14.493 9.65305 14.2296 10.2889 13.7608 10.7578C13.292 11.2266 12.6561 11.49 11.993 11.49V11.49Z" fill="f33736"/>
<path d="M11.993 2C10.1389 2.00185 8.36129 2.73921 7.05025 4.05025C5.73921 5.36129 5.00185 7.13891 5 8.993C5 13.476 10.968 20.76 11.222 21.067C11.3158 21.1806 11.4336 21.272 11.5669 21.3348C11.7002 21.3976 11.8457 21.4302 11.993 21.4302C12.1403 21.4302 12.2858 21.3976 12.4191 21.3348C12.5524 21.272 12.6702 21.1806 12.764 21.067C13.018 20.759 18.986 13.476 18.986 8.993C18.9841 7.13891 18.2468 5.36129 16.9358 4.05025C15.6247 2.73921 13.8471 2.00185 11.993 2V2ZM11.993 18.817C10.115 16.354 7 11.702 7 8.993C7.00159 7.66926 7.52814 6.40019 8.46417 5.46417C9.40019 4.52814 10.6693 4.00159 11.993 4C13.3167 4.00159 14.5858 4.52814 15.5218 5.46417C16.4579 6.40019 16.9844 7.66926 16.986 8.993C16.986 11.698 13.871 16.352 11.993 18.817V18.817Z" fill="f33736"/>
</svg>
