<svg width="24" height="24" viewBox="0 0 24 24" fill="none" xmlns="http://www.w3.org/2000/svg">
<path fill-rule="evenodd" clip-rule="evenodd" d="M7 9C7.53043 9 8.03914 8.78929 8.41421 8.41421C8.78929 8.03914 9 7.53043 9 7C9 6.46957 8.78929 5.96086 8.41421 5.58579C8.03914 5.21071 7.53043 5 7 5C6.46957 5 5.96086 5.21071 5.58579 5.58579C5.21071 5.96086 5 6.46957 5 7C5 7.53043 5.21071 8.03914 5.58579 8.41421C5.96086 8.78929 6.46957 9 7 9V9ZM7 11C8.06087 11 9.07828 10.5786 9.82843 9.82843C10.5786 9.07828 11 8.06087 11 7C11 5.93913 10.5786 4.92172 9.82843 4.17157C9.07828 3.42143 8.06087 3 7 3C5.93913 3 4.92172 3.42143 4.17157 4.17157C3.42143 4.92172 3 5.93913 3 7C3 8.06087 3.42143 9.07828 4.17157 9.82843C4.92172 10.5786 5.93913 11 7 11V11ZM17 19C17.5304 19 18.0391 18.7893 18.4142 18.4142C18.7893 18.0391 19 17.5304 19 17C19 16.4696 18.7893 15.9609 18.4142 15.5858C18.0391 15.2107 17.5304 15 17 15C16.4696 15 15.9609 15.2107 15.5858 15.5858C15.2107 15.9609 15 16.4696 15 17C15 17.5304 15.2107 18.0391 15.5858 18.4142C15.9609 18.7893 16.4696 19 17 19ZM17 21C18.0609 21 19.0783 20.5786 19.8284 19.8284C20.5786 19.0783 21 18.0609 21 17C21 15.9391 20.5786 14.9217 19.8284 14.1716C19.0783 13.4214 18.0609 13 17 13C15.9391 13 14.9217 13.4214 14.1716 14.1716C13.4214 14.9217 13 15.9391 13 17C13 18.0609 13.4214 19.0783 14.1716 19.8284C14.9217 20.5786 15.9391 21 17 21V21ZM19.707 5.707C19.8892 5.5184 19.99 5.2658 19.9877 5.0036C19.9854 4.7414 19.8802 4.49059 19.6948 4.30518C19.5094 4.11977 19.2586 4.0146 18.9964 4.01233C18.7342 4.01005 18.4816 4.11084 18.293 4.293L11.293 11.293L4.293 18.293C4.19749 18.3852 4.12131 18.4956 4.0689 18.6176C4.01649 18.7396 3.9889 18.8708 3.98775 19.0036C3.9866 19.1364 4.0119 19.2681 4.06218 19.391C4.11246 19.5138 4.18671 19.6255 4.2806 19.7194C4.3745 19.8133 4.48615 19.8875 4.60905 19.9378C4.73194 19.9881 4.86362 20.0134 4.9964 20.0123C5.12918 20.0111 5.2604 19.9835 5.3824 19.9311C5.50441 19.8787 5.61475 19.8025 5.707 19.707L12.707 12.707L19.707 5.707Z" fill="f33736"/>
</svg>
