<svg
  width="24"
  height="24"
  viewBox="0 0 24 24"
  fill="none"
  xmlns="http://www.w3.org/2000/svg"
>
  <path
    d="M11.9648 10.1015C12.3532 10.1015 12.668 10.4163 12.668 10.8047C12.668 11.193 12.3532 11.5078 11.9648 11.5078C11.5765 11.5078 11.2617 11.193 11.2617 10.8047C11.2617 10.4163 11.5765 10.1015 11.9648 10.1015ZM14.4258 10.8047C14.4258 11.193 14.7405 11.5078 15.1289 11.5078C15.5172 11.5078 15.832 11.193 15.832 10.8047C15.832 10.4163 15.5172 10.1015 15.1289 10.1015C14.7405 10.1015 14.4258 10.4163 14.4258 10.8047ZM8.09765 10.8047C8.09765 11.193 8.4124 11.5078 8.80077 11.5078C9.18914 11.5078 9.50389 11.193 9.50389 10.8047C9.50389 10.4163 9.18914 10.1015 8.80077 10.1015C8.4124 10.1015 8.09765 10.4163 8.09765 10.8047ZM20.3817 17.3987C21.2046 18.2215 21.2046 19.5597 20.3821 20.3821C19.971 20.7933 19.4307 20.999 18.8906 20.999C18.3505 20.999 17.8102 20.7933 17.3991 20.3821L13.5393 16.531C13.4573 16.4492 13.3969 16.3485 13.3632 16.2375L12.5225 13.47C12.4479 13.2245 12.5129 12.9581 12.692 12.7745C12.8711 12.591 13.1358 12.5196 13.383 12.588L16.2209 13.3741C16.3378 13.4065 16.4442 13.4684 16.53 13.5541L20.3817 17.3987ZM14.6574 15.6601L17.2621 18.259L18.2567 17.2645L15.6673 14.6801L14.2397 14.2846L14.6574 15.6601ZM19.3877 18.3935L19.252 18.2579L18.2576 19.2523L18.3929 19.3872C18.6676 19.662 19.1136 19.662 19.3877 19.3877C19.662 19.1136 19.662 18.6676 19.3877 18.3935V18.3935ZM12.3911 17.5706C12.2612 17.5762 12.1296 17.5791 12 17.5791C10.8694 17.5791 9.78089 17.3686 8.76493 16.9534C8.59189 16.8828 8.39771 16.8839 8.2255 16.9566L5.02395 18.308L6.10267 15.7528C6.20814 15.503 6.16049 15.2146 5.98004 15.0119C4.95048 13.8553 4.40625 12.4714 4.40625 11.0103C4.40625 7.36884 7.81283 4.40625 12 4.40625C16.1871 4.40625 19.5937 7.36884 19.5937 11.0103C19.5937 11.8738 19.3817 12.7407 18.9634 13.5868C18.7913 13.9349 18.934 14.3567 19.2821 14.5288C19.6302 14.7008 20.052 14.5581 20.2241 14.21C20.7389 13.1684 21 12.0919 21 11.0103C21 6.59335 16.9626 3 12 3C7.03747 3 3 6.59335 3 11.0103C3 12.6774 3.56525 14.2563 4.63957 15.6028L3.05534 19.3555C2.94411 19.619 3.00371 19.9237 3.20599 20.126C3.34058 20.2606 3.52034 20.332 3.70326 20.332C3.79541 20.332 3.88838 20.3139 3.97655 20.2767L8.50922 18.3633C9.61472 18.7762 10.7876 18.9854 12 18.9854C12.1499 18.9854 12.3022 18.9819 12.4526 18.9755C12.8406 18.9584 13.1413 18.6302 13.1243 18.2423C13.1074 17.8543 12.7785 17.5526 12.3911 17.5706V17.5706Z"
  />
</svg>
