<svg width="24" height="24" viewBox="0 0 24 24" fill="none" xmlns="http://www.w3.org/2000/svg">
<path d="M17 1H7C6.46957 1 5.96086 1.21071 5.58579 1.58579C5.21071 1.96086 5 2.46957 5 3V21C5 21.5304 5.21071 22.0391 5.58579 22.4142C5.96086 22.7893 6.46957 23 7 23H17C17.5304 23 18.0391 22.7893 18.4142 22.4142C18.7893 22.0391 19 21.5304 19 21V3C19 2.46957 18.7893 1.96086 18.4142 1.58579C18.0391 1.21071 17.5304 1 17 1ZM14 20H10V19H14V20ZM17 21H7V3H17V21Z" fill="f33736"/>
<path d="M6 5H18V7H6V5ZM6 16H18V18H6V16Z" fill="f33736"/>
</svg>
