<svg width="24" height="24" viewBox="0 0 24 24" fill="none" xmlns="http://www.w3.org/2000/svg">
<path d="M21.0337 7.994C20.9649 8.25325 20.8 8.47658 20.5724 8.61866C20.3449 8.76074 20.0719 8.81091 19.8087 8.759C17.2461 8.26404 14.6427 8.00993 12.0327 8C8.64771 8 5.71471 8.474 4.25671 8.76C3.99342 8.81187 3.72025 8.76156 3.49272 8.61928C3.26518 8.477 3.10035 8.25343 3.03171 7.994C2.99858 7.86879 2.99131 7.73814 3.01036 7.61003C3.02941 7.48192 3.07438 7.35904 3.14251 7.24889C3.21064 7.13873 3.30051 7.04363 3.40663 6.96937C3.51275 6.89511 3.63289 6.84327 3.75971 6.817C6.48486 6.28038 9.25525 6.00679 12.0327 6C15.6977 6 18.7997 6.515 20.3057 6.817C20.4325 6.84338 20.5525 6.89531 20.6585 6.96962C20.7645 7.04392 20.8543 7.13905 20.9223 7.24919C20.9903 7.35933 21.0352 7.48217 21.0542 7.61022C21.0732 7.73828 21.0659 7.86886 21.0327 7.994H21.0337ZM14.5327 2C14.3357 2 14.1407 2.0388 13.9587 2.11418C13.7767 2.18956 13.6113 2.30005 13.4721 2.43934C13.3328 2.57863 13.2223 2.74399 13.1469 2.92597C13.0715 3.10796 13.0327 3.30302 13.0327 3.5C13.0327 3.69698 13.0715 3.89204 13.1469 4.07403C13.2223 4.25601 13.3328 4.42137 13.4721 4.56066C13.6113 4.69995 13.7767 4.81044 13.9587 4.88582C14.1407 4.9612 14.3357 5 14.5327 5C14.9305 5 15.3121 4.84196 15.5934 4.56066C15.8747 4.27936 16.0327 3.89782 16.0327 3.5C16.0327 3.10218 15.8747 2.72064 15.5934 2.43934C15.3121 2.15804 14.9305 2 14.5327 2ZM9.53271 2C9.33573 2 9.14068 2.0388 8.95869 2.11418C8.7767 2.18956 8.61134 2.30005 8.47205 2.43934C8.33277 2.57863 8.22228 2.74399 8.14689 2.92597C8.07151 3.10796 8.03271 3.30302 8.03271 3.5C8.03271 3.69698 8.07151 3.89204 8.14689 4.07403C8.22228 4.25601 8.33277 4.42137 8.47205 4.56066C8.61134 4.69995 8.7767 4.81044 8.95869 4.88582C9.14068 4.9612 9.33573 5 9.53271 5C9.93054 5 10.3121 4.84196 10.5934 4.56066C10.8747 4.27936 11.0327 3.89782 11.0327 3.5C11.0327 3.10218 10.8747 2.72064 10.5934 2.43934C10.3121 2.15804 9.93054 2 9.53271 2Z" fill="f33736"/>
<path d="M20 21H4C2.879 21 2 20.121 2 19C2 12.844 4.589 7.35601 4.699 7.12601L6.504 7.98801C6.479 8.04101 4 13.31 4 19H20C20 13.293 17.521 8.04101 17.496 7.98901L19.301 7.12601C19.411 7.35601 22 12.844 22 19C22 20.121 21.121 21 20 21Z" fill="f33736"/>
</svg>
