<svg width="22" height="22" viewBox="0 0 22 22" fill="none" xmlns="http://www.w3.org/2000/svg">
<path d="M11 2C6.03732 2 2 6.03732 2 11C2 15.9627 6.03732 20 11 20C15.9627 20 20 15.9627 20 11C20 6.03732 15.9627 2 11 2ZM11 18.0328C7.12202 18.0328 3.96721 14.878 3.96721 11C3.96721 7.12221 7.12202 3.96721 11 3.96721C14.878 3.96721 18.0328 7.12221 18.0328 11C18.0328 14.878 14.878 18.0328 11 18.0328Z" fill="f33736"/>
<path d="M11.7468 10.8283V6.81188C11.7468 6.36341 11.3558 6 10.8735 6C10.391 6 10 6.36341 10 6.81188V11.0877C10 11.1005 10.0034 11.1124 10.0041 11.1252C9.99256 11.346 10.0744 11.5701 10.2558 11.7387L13.509 14.7621C13.8502 15.0793 14.4032 15.0793 14.7442 14.7621C15.0852 14.445 15.0854 13.931 14.7442 13.6141L11.7468 10.8283Z" fill="f33736"/>
</svg>
