<svg
  width="24"
  height="24"
  viewBox="0 0 24 24"
  fill="none"
  xmlns="http://www.w3.org/2000/svg"
>
  <path
    d="M20.4891 3.51124C15.8069 -1.16997 8.19236 -1.16997 3.51016 3.51124C-1.17001 8.19245 -1.17001 15.809 3.51016 20.4902C5.85126 22.8303 8.92569 23.9998 12.0002 23.9998C15.0746 23.9998 18.148 22.8303 20.4891 20.4902C25.1703 15.809 25.1703 8.19245 20.4891 3.51124ZM16.9514 15.5379C17.3426 15.929 17.3426 16.5614 16.9514 16.9525C16.7564 17.1476 16.5003 17.2457 16.2441 17.2457C15.988 17.2457 15.7318 17.1476 15.5368 16.9525L12.0001 13.4149L8.46445 16.9515C8.26838 17.1466 8.01223 17.2446 7.75711 17.2446C7.501 17.2446 7.24485 17.1466 7.04976 16.9515C6.65859 16.5603 6.65859 15.927 7.04976 15.5368L10.5854 12.0002L7.04877 8.46356C6.65761 8.0724 6.65761 7.4391 7.04877 7.04892C7.43896 6.65775 8.07225 6.65775 8.46342 7.04892L12.0001 10.5856L15.5367 7.04892C15.9279 6.65775 16.5602 6.65775 16.9514 7.04892C17.3425 7.4391 17.3425 8.0724 16.9514 8.46356L13.4147 12.0002L16.9514 15.5379Z"
    fill="white"
  />
</svg>
