<svg
  width="24"
  height="24"
  viewBox="0 0 24 24"
  xmlns="http://www.w3.org/2000/svg"
>
  <path
    d="M19.0459 15.6848C17.912 14.7263 17.2618 13.3252 17.2618 11.841V9.75C17.2618 7.11081 15.3013 4.92604 12.7618 4.56006V3.74995C12.7618 3.33522 12.4257 3 12.0117 3C11.5978 3 11.2617 3.33522 11.2617 3.74995V4.56006C8.72141 4.92604 6.76172 7.11081 6.76172 9.75V11.841C6.76172 13.3252 6.11147 14.7263 4.97067 15.6907C4.67899 15.9405 4.51172 16.3035 4.51172 16.6875C4.51172 17.4113 5.10045 18 5.82417 18H18.1992C18.923 18 19.5118 17.4113 19.5118 16.6875C19.5118 16.3035 19.3445 15.9405 19.0459 15.6848Z"
  />
  <path
    d="M12.0116 21C13.3699 21 14.5062 20.0317 14.7671 18.75H9.2561C9.51717 20.0317 10.6534 21 12.0116 21Z"
  />
</svg>
