<svg width="204" height="50" viewBox="0 0 204 50" fill="none" xmlns="http://www.w3.org/2000/svg">
<g clip-path="url(#clip0)">
<path fill-rule="evenodd" clip-rule="evenodd" d="M42.84 7.47506C39.3731 3.94922 34.9387 1.5303 30.0973 0.524037C25.256 -0.48223 20.2249 -0.0306745 15.6402 1.82163C11.0554 3.67394 7.12261 6.84384 4.33893 10.9307C1.55526 15.0176 0.0456255 19.8379 0.000838136 24.7826C-0.0424947 29.7272 1.38172 34.5736 4.09331 38.7086C6.8049 42.8436 10.682 46.0815 15.2342 48.0126C19.7864 49.9444 24.8092 50.4834 29.6677 49.5616C34.5263 48.6398 39.0025 46.2984 42.5308 42.8334C47.2549 38.1825 49.9406 31.8472 49.9986 25.2182C50.0566 18.5891 47.482 12.2079 42.84 7.47506ZM36.0842 11.4542L38.775 14.1909C38.933 14.3521 39.0206 14.5695 39.0186 14.7952C39.0165 15.021 38.925 15.2367 38.7642 15.3951L25.5975 28.3334C25.5176 28.4119 25.4231 28.4739 25.3192 28.5158C25.2154 28.5577 25.1043 28.5788 24.9923 28.5778C24.8804 28.5768 24.7697 28.5537 24.6666 28.5099C24.5635 28.4661 24.4701 28.4025 24.3917 28.3226L21.7033 25.5926C21.5447 25.4312 21.4566 25.2134 21.4585 24.9872C21.4603 24.7609 21.552 24.5446 21.7133 24.3859L34.88 11.4509C35.0404 11.292 35.2572 11.2032 35.4829 11.204C35.7087 11.2048 35.9249 11.2951 36.0842 11.4551V11.4542ZM36.6958 36.9001C34.5321 39.0253 31.83 40.5204 28.88 41.2247C25.93 41.929 22.8439 41.8158 19.9535 40.8973C17.0631 39.9787 14.4777 38.2896 12.4755 36.0116C10.4733 33.7336 9.12997 30.9528 8.59 27.9684C8.05068 24.9842 8.33546 21.9093 9.41369 19.0749C10.4919 16.2405 12.3228 13.7538 14.7092 11.8826C17.0955 10.0106 19.9471 8.82458 22.9571 8.45207C25.9671 8.07956 29.0218 8.53465 31.7925 9.7684C31.9195 9.82408 32.031 9.90991 32.1174 10.0184C32.2037 10.127 32.2623 10.2549 32.288 10.3912C32.3137 10.5275 32.3058 10.668 32.2649 10.8005C32.224 10.9331 32.1514 11.0536 32.0533 11.1517L29.0858 14.1351C28.9765 14.245 28.8393 14.323 28.6889 14.3607C28.5386 14.3985 28.3808 14.3945 28.2325 14.3492C26.0218 13.6766 23.6567 13.7077 21.4644 14.4382C19.2722 15.1687 17.3612 16.5625 15.9958 18.4267C14.9755 19.8201 14.2931 21.4317 14.0027 23.1342C13.7122 24.8366 13.8216 26.5833 14.3223 28.2362C14.8229 29.889 15.701 31.4029 16.8873 32.658C18.0736 33.9132 19.5355 34.8753 21.1575 35.4684C22.7793 36.0616 24.5168 36.2698 26.2329 36.0766C27.949 35.8834 29.5966 35.294 31.046 34.355C32.4953 33.416 33.7065 32.1531 34.5842 30.6658C35.4619 29.1786 35.9819 27.5077 36.1033 25.7851C36.1167 25.5708 36.2105 25.3694 36.3659 25.2213C36.5214 25.0731 36.727 24.989 36.9417 24.9859H40.7933C40.9082 24.986 41.0218 25.0093 41.1274 25.0544C41.233 25.0994 41.3284 25.1653 41.408 25.2481C41.4876 25.3308 41.5497 25.4288 41.5905 25.5361C41.6314 25.6434 41.6502 25.7578 41.6458 25.8726C41.4383 30.0392 39.6717 33.9751 36.6958 36.9001Z" fill="#F33736"/>
<path d="M65 43.8534V30.6075C65 30.4941 65.0225 30.3819 65.0661 30.2772C65.1097 30.1725 65.1735 30.0775 65.254 29.9976C65.3345 29.9178 65.43 29.8546 65.535 29.8118C65.64 29.7691 65.7525 29.7475 65.8659 29.7484H79.425C79.5102 29.7474 79.5948 29.7633 79.6738 29.7953C79.7528 29.8273 79.8246 29.8747 79.8851 29.9348C79.9456 29.9948 79.9935 30.0662 80.0261 30.145C80.0587 30.2237 80.0754 30.3081 80.075 30.3934V30.4834C80.0749 30.5682 80.0579 30.6521 80.0252 30.7304C79.9924 30.8086 79.9445 30.8796 79.8842 30.9392C79.7623 31.0602 79.5976 31.1282 79.4259 31.1284H66.7417V36.375H77.2034C77.3759 36.375 77.5409 36.4425 77.6625 36.5642C77.7537 36.6541 77.816 36.7693 77.8413 36.8948C77.8666 37.0204 77.8538 37.1506 77.8045 37.2689C77.7553 37.3871 77.6718 37.4879 77.5648 37.5583C77.4579 37.6288 77.3323 37.6656 77.2042 37.6642H66.7417V43.3892H79.425C79.5967 43.389 79.7614 43.4567 79.8834 43.5775C79.9435 43.6372 79.9913 43.7082 80.0239 43.7865C80.0565 43.8647 80.0733 43.9486 80.0734 44.0334V44.0934C80.0734 44.1783 80.0567 44.2623 80.0241 44.3407C79.9915 44.4191 79.9436 44.4902 79.8834 44.55C79.7613 44.6707 79.5966 44.7384 79.425 44.7384H65.865C65.7493 44.7383 65.6347 44.7152 65.528 44.6704C65.4213 44.6256 65.3245 44.5601 65.2434 44.4775C65.1628 44.3951 65.0997 44.2972 65.0577 44.1899C65.0158 44.0825 64.9959 43.9678 64.9992 43.8525L65 43.8534ZM85.5425 43.2509C86.7134 40.7192 86.8025 37.4092 86.8025 34.0409V30.6017C86.8025 30.3734 86.8934 30.1542 87.0559 29.9934C87.2184 29.8325 87.4384 29.7417 87.6684 29.7417H101.727C101.957 29.7417 102.177 29.8325 102.339 29.9934C102.502 30.155 102.593 30.3734 102.593 30.6017V43.245H103.738C103.967 43.2452 104.186 43.3357 104.348 43.4968C104.51 43.6579 104.602 43.8765 104.604 44.105V46.3017C104.604 46.5292 104.513 46.7484 104.35 46.91C104.187 47.0709 103.967 47.1611 103.738 47.1609H103.708C103.48 47.1583 103.263 47.0668 103.103 46.9059C102.943 46.7454 102.853 46.5282 102.853 46.3017V44.7067H85.3934V46.3017C85.3934 46.5292 85.3017 46.7484 85.1392 46.91C84.9763 47.0709 84.7565 47.1611 84.5275 47.1609C84.3 47.1584 84.0825 47.0669 83.9217 46.9059C83.7621 46.7453 83.6725 46.5281 83.6725 46.3017V44.1109C83.6725 43.8834 83.7634 43.6642 83.9259 43.5025C84.0884 43.3417 84.3084 43.2509 84.5384 43.2509H85.5425ZM100.883 43.2509V31.2142H88.5359V34.045C88.5359 37.4434 88.445 40.7234 87.2742 43.2559L100.883 43.2509ZM123.678 40.7192H112.39L109.985 44.3559C109.912 44.4661 109.813 44.5564 109.697 44.6187C109.58 44.681 109.45 44.7133 109.318 44.7125C109.174 44.712 109.033 44.673 108.91 44.5994C108.786 44.5258 108.684 44.4204 108.615 44.2942C108.548 44.1677 108.516 44.0254 108.522 43.8823C108.529 43.7391 108.574 43.6004 108.653 43.4809L117.371 30.4975C117.444 30.3884 117.542 30.2991 117.658 30.2376C117.774 30.1761 117.903 30.1443 118.034 30.145C118.165 30.1449 118.294 30.177 118.41 30.2387C118.526 30.3003 118.625 30.3895 118.698 30.4984L127.414 43.4817C127.474 43.5708 127.515 43.6714 127.535 43.777C127.555 43.8827 127.553 43.9913 127.529 44.096C127.505 44.2008 127.46 44.2996 127.396 44.3863C127.333 44.473 127.252 44.5457 127.159 44.6C126.983 44.7052 126.773 44.7385 126.572 44.693C126.372 44.6476 126.197 44.5269 126.083 44.3559L123.678 40.7192ZM113.321 39.3175H122.748L118.035 32.1925L113.321 39.3175Z" fill="#212121"/>
<path fill-rule="evenodd" clip-rule="evenodd" d="M200.988 3.96325L202.337 5.25242L202.382 5.31325C202.778 5.71992 203.017 6.25325 203.056 6.81742V14.9408C203.018 15.5018 202.788 16.0328 202.406 16.4449L201.077 17.7566C200.635 18.1282 200.088 18.3535 199.512 18.4016H186.849L186.754 3.33325H199.421C199.999 3.36036 200.552 3.58239 200.988 3.96325ZM197.402 15.8049C197.417 15.7674 197.423 15.727 197.421 15.6866V6.04409C197.422 6.00373 197.414 5.96367 197.398 5.92659C197.382 5.88951 197.358 5.85626 197.328 5.82909C197.27 5.77284 197.193 5.7412 197.112 5.74075H192.726C192.665 5.74091 192.606 5.75864 192.556 5.79179C192.505 5.82494 192.466 5.87207 192.442 5.92742C192.426 5.96444 192.419 6.00406 192.418 6.04409V15.6858C192.426 15.767 192.464 15.8426 192.523 15.8986C192.582 15.9546 192.66 15.9873 192.742 15.9908H197.107C197.149 15.9935 197.19 15.9877 197.229 15.9738C197.268 15.9599 197.304 15.9381 197.334 15.9099C197.363 15.8798 197.386 15.8441 197.402 15.8049ZM182.708 3.46659H179.576C179.412 3.46511 179.25 3.49422 179.098 3.55242C178.947 3.61086 178.81 3.69867 178.693 3.81075C178.577 3.91908 178.485 4.05015 178.421 4.1958C178.358 4.34145 178.325 4.49858 178.325 4.65742V10.8908L172.422 3.83825C172.3 3.71229 172.152 3.61349 171.989 3.54825C171.821 3.48306 171.641 3.45383 171.461 3.46242H168.322C167.994 3.45716 167.676 3.58069 167.438 3.80659C167.322 3.91538 167.23 4.04659 167.167 4.19217C167.104 4.33776 167.072 4.49466 167.072 4.65325V17.3083C167.07 17.4691 167.102 17.6284 167.165 17.7764C167.228 17.9244 167.321 18.0578 167.438 18.1683C167.675 18.3949 167.993 18.5216 168.322 18.5208H171.452C171.783 18.5216 172.101 18.3958 172.34 18.1683C172.456 18.0573 172.549 17.9238 172.611 17.7759C172.674 17.628 172.706 17.4689 172.706 17.3083V7.98658L178.333 14.6508V17.2558C178.333 17.4166 178.366 17.5757 178.429 17.7236C178.493 17.8714 178.585 18.0048 178.702 18.1158C178.939 18.3433 179.257 18.4691 179.587 18.4683H182.717C183.046 18.4689 183.363 18.3426 183.602 18.1158C183.718 18.0045 183.811 17.871 183.873 17.7232C183.936 17.5754 183.969 17.4164 183.968 17.2558V4.59742C183.96 4.44222 183.921 4.29023 183.853 4.15031C183.785 4.01039 183.691 3.88533 183.574 3.78242C183.336 3.57178 183.026 3.45872 182.708 3.46575V3.46659ZM164.283 4.61242V17.2541C164.284 17.4146 164.252 17.5736 164.189 17.7213C164.126 17.869 164.034 18.0023 163.918 18.1133C163.679 18.3402 163.362 18.4664 163.033 18.4658H149.259C148.929 18.4669 148.611 18.3406 148.372 18.1133C148.256 18.002 148.164 17.8684 148.101 17.7206C148.038 17.5728 148.006 17.4139 148.006 17.2533V4.61159C148.005 4.45105 148.038 4.29209 148.1 4.14439C148.163 3.99669 148.256 3.86332 148.372 3.75242C148.611 3.52513 148.929 3.39888 149.259 3.39992H163.033C163.363 3.39992 163.679 3.52575 163.918 3.75242C164.034 3.86342 164.126 3.99692 164.189 4.14477C164.252 4.29263 164.284 4.45174 164.283 4.61242ZM158.558 15.9591C158.587 15.9313 158.61 15.8979 158.626 15.8609C158.641 15.824 158.649 15.7842 158.649 15.7441V6.10408C158.649 6.06396 158.641 6.02421 158.626 5.98725C158.61 5.95029 158.587 5.91689 158.558 5.88909C158.5 5.83284 158.423 5.8012 158.342 5.80075H153.965C153.904 5.80072 153.845 5.81827 153.795 5.85126C153.744 5.88424 153.704 5.93126 153.679 5.98659C153.663 6.02345 153.655 6.06313 153.655 6.10325V15.7466C153.655 15.7869 153.664 15.8267 153.68 15.8636C153.696 15.9006 153.719 15.9339 153.748 15.9616C153.806 16.018 153.884 16.0496 153.965 16.0499H158.338C158.378 16.05 158.419 16.0421 158.457 16.0265C158.495 16.0109 158.529 15.988 158.558 15.9591ZM143.967 3.46659H140.837C140.662 3.46825 140.488 3.50492 140.327 3.57409C140.165 3.63991 140.018 3.73864 139.895 3.86409L134.574 10.1641L129.362 3.93075C129.234 3.77802 129.073 3.65654 128.891 3.57565C128.709 3.49476 128.511 3.45659 128.313 3.46409H125.176C124.847 3.45896 124.529 3.58246 124.29 3.80825C124.175 3.9172 124.083 4.04841 124.02 4.19393C123.956 4.33946 123.923 4.49628 123.923 4.65492V17.3116C123.921 17.4725 123.953 17.6319 124.017 17.7799C124.08 17.9278 124.173 18.0612 124.29 18.1716C124.528 18.3983 124.846 18.5249 125.176 18.5241H128.314C128.644 18.5241 128.962 18.3991 129.2 18.1716C129.316 18.0606 129.409 17.9272 129.472 17.7793C129.535 17.6315 129.568 17.4724 129.567 17.3116V7.98658L133.323 12.5008V17.3074C133.323 17.4681 133.355 17.6272 133.418 17.7751C133.481 17.9229 133.573 18.0564 133.689 18.1674C133.928 18.3946 134.246 18.5213 134.575 18.5213C134.905 18.5213 135.223 18.3946 135.462 18.1674C135.577 18.0561 135.67 17.9226 135.732 17.7748C135.795 17.627 135.828 17.468 135.827 17.3074V12.5074L139.585 7.99325V17.2599C139.584 17.4206 139.617 17.5797 139.68 17.7275C139.742 17.8753 139.835 18.0089 139.951 18.1199C140.189 18.3466 140.507 18.4733 140.837 18.4724H143.967C144.297 18.4733 144.614 18.3474 144.852 18.1199C144.968 18.0089 145.061 17.8755 145.124 17.7277C145.187 17.5798 145.22 17.4207 145.22 17.2599V4.59742C145.219 4.43867 145.185 4.28183 145.122 4.13623C145.059 3.99063 144.967 3.85925 144.852 3.74992C144.613 3.52432 144.295 3.4011 143.967 3.40659V3.46659ZM119.143 4.03825L120.472 5.32825L120.427 5.35825C120.822 5.76575 121.059 6.29825 121.097 6.86242V15.0908C121.059 15.656 120.821 16.1892 120.427 16.5958L119.095 17.8858C118.652 18.2551 118.105 18.4761 117.53 18.5174H104.868V3.40659H117.578C118.153 3.44825 118.702 3.66909 119.143 4.03825ZM115.42 15.9591C115.449 15.9313 115.472 15.8978 115.487 15.8609C115.503 15.8239 115.511 15.7842 115.511 15.7441V6.10408C115.511 6.06396 115.503 6.02421 115.488 5.98725C115.472 5.95029 115.449 5.91689 115.42 5.88909C115.362 5.83284 115.284 5.8012 115.203 5.80075H110.816C110.756 5.80132 110.697 5.81922 110.646 5.85232C110.596 5.88542 110.556 5.93232 110.532 5.98742C110.516 6.02433 110.508 6.06402 110.508 6.10408V15.7466C110.508 15.7867 110.516 15.8265 110.532 15.8635C110.547 15.9004 110.57 15.9338 110.599 15.9616C110.657 16.0174 110.735 16.0491 110.816 16.0499H115.197C115.238 16.0502 115.279 16.0423 115.317 16.0267C115.356 16.0111 115.391 15.9881 115.42 15.9591ZM91.0917 16.0416H100.798C101.128 16.0416 101.445 16.1683 101.683 16.3958C101.799 16.5055 101.891 16.6377 101.954 16.7843C102.017 16.9309 102.049 17.0887 102.049 17.2483C102.049 17.4078 102.017 17.5656 101.954 17.7122C101.891 17.8588 101.799 17.991 101.683 18.1008C101.445 18.3277 101.128 18.4539 100.798 18.4533H86.4125C86.0829 18.4539 85.7657 18.3276 85.5267 18.1008C85.4107 17.9896 85.3185 17.856 85.2557 17.7082C85.1928 17.5604 85.1605 17.4014 85.1608 17.2408V4.61242C85.1603 4.45175 85.1924 4.29265 85.2553 4.1448C85.3182 3.99695 85.4105 3.86345 85.5267 3.75242C85.7657 3.52553 86.0829 3.39931 86.4125 3.39992H100.798C101.128 3.39992 101.445 3.52575 101.683 3.75242C101.8 3.86342 101.892 3.99692 101.955 4.14477C102.018 4.29263 102.05 4.45174 102.049 4.61242V12.8166C102.05 12.9773 102.018 13.1364 101.955 13.2842C101.892 13.4321 101.8 13.5656 101.683 13.6766C101.445 13.9035 101.128 14.0297 100.798 14.0291H91.0917C91.0109 14.0304 90.9337 14.0626 90.8758 14.1191C90.8491 14.1473 90.8277 14.18 90.8125 14.2158C90.7991 14.2522 90.7934 14.2911 90.7958 14.3299V15.7466C90.7919 15.8061 90.807 15.8652 90.8391 15.9155C90.8712 15.9657 90.9185 16.0044 90.9742 16.0258C91.0115 16.0408 91.0514 16.0482 91.0917 16.0474V16.0408V16.0416ZM90.8125 5.98325C90.7991 6.01973 90.7934 6.05862 90.7958 6.09742V11.3124C90.7935 11.3515 90.7995 11.3906 90.8133 11.4272C90.827 11.4638 90.8484 11.4971 90.8758 11.5249C90.9331 11.5822 91.0107 11.6146 91.0917 11.6149H96.1008C96.1611 11.6133 96.2197 11.5948 96.2699 11.5615C96.3202 11.5282 96.36 11.4814 96.385 11.4266C96.4006 11.3897 96.4086 11.35 96.4083 11.3099V6.10408C96.4086 6.06396 96.4006 6.02421 96.385 5.98725C96.3694 5.95029 96.3464 5.91689 96.3175 5.88909C96.2591 5.8332 96.1817 5.80162 96.1008 5.80075H91.0917C91.0518 5.80048 91.0122 5.80783 90.975 5.82242C90.9384 5.83882 90.9048 5.86137 90.8758 5.88909C90.8488 5.91857 90.8273 5.95274 90.8125 5.98992V5.98325ZM79.8233 14.0141L82.39 17.0233V17.1441C82.9533 17.8233 82.8233 18.4099 82.0767 18.5299H76.535L72.8267 14.0166H70.6283V17.3166C70.6286 17.477 70.5962 17.6359 70.5332 17.7834C70.4702 17.931 70.3778 18.0642 70.2617 18.1749C70.023 18.4021 69.7061 18.5286 69.3767 18.5283H66.2517C65.9217 18.5283 65.6042 18.4024 65.3658 18.1758C65.2499 18.0645 65.1578 17.931 65.0949 17.7832C65.032 17.6354 64.9997 17.4764 65 17.3158V4.64992C64.9998 4.49091 65.0323 4.33356 65.0957 4.18773C65.1591 4.04189 65.2519 3.91072 65.3683 3.80242C65.6067 3.57708 65.9237 3.45386 66.2517 3.45909H81.2775C81.5967 3.45352 81.9062 3.56871 82.1442 3.78159C82.3758 3.98992 82.5158 4.27992 82.5333 4.58992V12.8174C82.534 12.9783 82.5016 13.1377 82.4382 13.2856C82.3749 13.4335 82.2819 13.5668 82.165 13.6774C81.9267 13.905 81.6095 14.0314 81.28 14.0299L79.8233 14.0149V14.0141ZM76.8033 11.5274C76.8328 11.4999 76.8563 11.4666 76.8724 11.4296C76.8885 11.3927 76.8967 11.3527 76.8967 11.3124V6.10408C76.8965 6.06379 76.8882 6.02394 76.8721 5.98698C76.8561 5.95001 76.8327 5.9167 76.8033 5.88909C76.7453 5.83269 76.6676 5.80103 76.5867 5.80075H70.9592C70.8986 5.80072 70.8394 5.81827 70.7887 5.85126C70.7379 5.88424 70.6979 5.93126 70.6733 5.98659C70.6573 6.02338 70.649 6.06311 70.6492 6.10325V11.3116C70.6484 11.3521 70.6564 11.3924 70.6725 11.4296C70.6886 11.4668 70.7124 11.5002 70.7425 11.5274C70.8008 11.5841 70.8775 11.6166 70.9592 11.6174H76.5875C76.6686 11.6164 76.7462 11.5842 76.8042 11.5274H76.8033Z" fill="#F33736"/>
</g>
<defs>
<clipPath id="clip0">
<rect width="203.333" height="50" fill="white"/>
</clipPath>
</defs>
</svg>
