<svg width="58" height="106" viewBox="0 0 58 106" fill="none" xmlns="http://www.w3.org/2000/svg">
<path fill-rule="evenodd" clip-rule="evenodd" d="M42.8209 15.848C35.4715 8.37251 26.0699 3.24362 15.805 1.10982C5.54003 -1.02398 -5.12727 -0.066861 -14.8481 3.86015C-24.569 7.78716 -32.9069 14.5077 -38.8074 23.172C-44.708 31.8363 -47.9063 42.0553 -47.998 52.5368C-48.0896 63.0183 -45.0704 73.2916 -39.3222 82.0577C-33.574 90.8238 -25.355 97.689 -15.7042 101.785C-6.05351 105.882 4.59543 107.025 14.8961 105.071C25.1968 103.117 34.6866 98.1529 42.1656 90.807C52.1812 80.9462 57.8751 67.5159 57.998 53.463C58.1208 39.4101 52.6626 25.8823 42.8209 15.848ZM28.4988 24.2837L34.2023 30.0852C34.5374 30.427 34.7233 30.8877 34.719 31.3663C34.7148 31.8449 34.5208 32.3023 34.1797 32.6381L6.26765 60.0643C6.09828 60.2309 5.89772 60.3624 5.67745 60.4515C5.45718 60.5405 5.22153 60.5852 4.98396 60.5831C4.74639 60.581 4.51156 60.5321 4.29291 60.4392C4.07425 60.3463 3.87604 60.2113 3.70964 60.0417L-1.98939 54.2538C-2.15599 54.0844 -2.28758 53.8839 -2.37662 53.6637C-2.46566 53.4435 -2.5104 53.2079 -2.5083 52.9704C-2.50621 52.7329 -2.45731 52.4981 -2.36439 52.2795C-2.27147 52.0609 -2.13635 51.8627 -1.96677 51.6964L25.9453 24.2747C26.2854 23.9379 26.7452 23.7497 27.2239 23.7514C27.7026 23.7531 28.1611 23.9445 28.4988 24.2837ZM29.7959 78.228C25.2088 82.7333 19.4798 85.9029 13.2253 87.396C6.97077 88.889 0.427448 88.6488 -5.70074 86.7014C-11.8289 84.754 -17.31 81.1729 -21.5544 76.3436C-25.7988 71.5142 -28.6457 65.6192 -29.789 59.2929C-30.9323 52.9666 -30.3287 46.4484 -28.043 40.4395C-25.7573 34.4306 -21.8762 29.1584 -16.8171 25.1902C-11.7579 21.222 -5.71236 18.7079 0.669296 17.9184C7.05096 17.129 13.5272 18.094 19.4012 20.7097C19.6703 20.8279 19.9066 21.01 20.0895 21.2402C20.2723 21.4703 20.3963 21.7416 20.4507 22.0305C20.505 22.3193 20.488 22.6171 20.4012 22.8979C20.3144 23.1788 20.1604 23.4342 19.9525 23.6421L13.6615 29.9678C13.4296 30.2001 13.1388 30.3649 12.8203 30.4445C12.5018 30.5241 12.1676 30.5155 11.8537 30.4196C7.16672 28.9932 2.15212 29.0589 -2.49579 30.6078C-7.1437 32.1566 -11.195 35.1119 -14.0886 39.0644C-16.9822 43.017 -18.575 47.7712 -18.6465 52.6688C-18.7179 57.5663 -17.2645 62.3649 -14.4874 66.4002C-11.7103 70.4354 -7.74704 73.5076 -3.14629 75.1913C1.45446 76.875 6.465 77.087 11.1916 75.7979C15.9182 74.5087 20.1269 71.7823 23.235 67.996C26.3431 64.2097 28.1968 59.551 28.5395 54.6649C28.5679 54.2108 28.7665 53.7842 29.0957 53.4701C29.425 53.156 29.8606 52.9776 30.3156 52.9706H38.4823C38.7259 52.9704 38.967 53.0194 39.1912 53.1147C39.4153 53.21 39.618 53.3496 39.7868 53.5252C39.9557 53.7008 40.0873 53.9086 40.1738 54.1363C40.2602 54.364 40.2998 54.6068 40.29 54.8502C39.8498 63.6831 36.104 72.0278 29.7959 78.228Z" fill="#F33736"/>
</svg>
