<svg width="18" height="18" viewBox="0 0 18 18" fill="none" xmlns="http://www.w3.org/2000/svg">
<path d="M8.72452 14.5773H10.1855C10.1855 14.5773 10.5106 14.5386 10.6761 14.3441C10.8284 14.1657 10.8236 13.8302 10.8236 13.8302C10.8236 13.8302 10.904 12.3136 11.5733 12.0829C12.233 11.8559 12.9791 13.5471 13.8787 14.2181C14.5588 14.7257 15.0746 14.6147 15.0746 14.6147L17.0909 14.5773C17.0909 14.5773 18.378 14.4651 17.7818 13.3887C17.7327 13.3014 17.4868 12.5431 16.0474 11.0889C14.5408 9.56603 14.7423 10.5289 16.5572 7.89477C17.6631 6.29086 18.1357 5.29933 17.9666 4.89149C17.8454 4.59965 17.0226 4.59965 17.0226 4.59965L14.6236 4.61835C14.6236 4.61835 14.4221 4.58842 14.2733 4.6857C14.127 4.78049 14.0346 5.00249 14.0346 5.00249C14.0346 5.00249 13.6064 5.61986 13.0355 6.67625C11.8312 8.90251 11.349 8.30261 11.1523 8.16541C10.6929 7.84363 10.8092 7.09406 10.8092 6.18111C10.8092 4.02219 11.1103 3.74656 10.2239 3.51333C9.93001 3.436 9.40703 3.38487 8.65376 3.37614C7.68937 3.36491 7.02246 3.43475 6.55946 3.68295C6.25239 3.84758 6.01489 4.21176 6.15883 4.23421C6.33755 4.26041 6.74298 4.3527 6.95648 4.67074C7.23477 5.08107 7.22517 5.37915 7.22517 5.37915C7.22517 5.37915 7.3847 7.91971 6.85333 8.2365C6.48869 8.45227 5.83617 8.66928 4.76263 6.65006C4.21206 5.61487 3.79584 5.09354 3.79584 5.09354C3.79584 5.09354 3.71668 4.88027 3.57274 4.76552C3.39881 4.62708 3.15772 4.59965 3.15772 4.59965L0.586024 4.60089C0.586024 4.60089 0.19979 4.61212 0.0594503 4.79546C-0.067695 4.95884 0.048655 5.29434 0.048655 5.29434C0.048655 5.29434 2.06139 9.70447 4.34041 12.2874C6.43351 14.6546 8.72452 14.5773 8.72452 14.5773Z" fill="#7C7E80"/>
</svg>
