<svg width="87" height="87" viewBox="0 0 87 87" fill="none" xmlns="http://www.w3.org/2000/svg">
<path fill-rule="evenodd" clip-rule="evenodd" d="M74.5417 13.0073C68.5096 6.87178 60.7932 2.66222 52.3682 0.910892C43.9432 -0.840435 35.188 -0.0548762 27.2095 3.16824C19.2311 6.39135 12.3878 11.9073 7.54483 19.0186C2.7019 26.1298 0.0768707 34.5171 0.00166253 43.1198C-0.0735457 51.7225 2.40444 60.1544 7.1223 67.3492C11.8402 74.544 18.586 80.1787 26.5069 83.5407C34.4278 86.9028 43.1679 87.8412 51.6223 86.2374C60.0766 84.6335 67.8654 80.5595 74.0038 74.5303C82.2242 66.437 86.8975 55.414 86.9983 43.88C87.0992 32.346 82.6193 21.2431 74.5417 13.0073ZM62.7867 19.931L67.4679 24.6926C67.743 24.9731 67.8955 25.3513 67.892 25.7441C67.8885 26.1369 67.7293 26.5122 67.4494 26.7879L44.5404 49.2981C44.4014 49.4348 44.2368 49.5428 44.056 49.6158C43.8752 49.6889 43.6818 49.7256 43.4868 49.7239C43.2918 49.7222 43.0991 49.682 42.9196 49.6058C42.7402 49.5295 42.5775 49.4187 42.4409 49.2795L37.7634 44.529C37.6267 44.3901 37.5187 44.2255 37.4456 44.0448C37.3725 43.864 37.3358 43.6706 37.3375 43.4757C37.3392 43.2808 37.3794 43.0881 37.4556 42.9086C37.5319 42.7292 37.6428 42.5666 37.782 42.4301L60.6909 19.9235C60.9701 19.6471 61.3475 19.4927 61.7404 19.494C62.1333 19.4954 62.5096 19.6526 62.7867 19.931ZM63.8513 64.206C60.0864 67.9037 55.3844 70.5053 50.2509 71.7307C45.1175 72.9561 39.747 72.759 34.7173 71.1606C29.6876 69.5622 25.1889 66.6231 21.7053 62.6593C18.2218 58.6956 15.8851 53.8573 14.9467 48.6649C14.0084 43.4726 14.5038 38.1227 16.3798 33.1909C18.2558 28.259 21.4412 23.9319 25.5935 20.675C29.7458 17.418 34.7078 15.3546 39.9455 14.7066C45.1833 14.0587 50.4987 14.8507 55.3198 16.9976C55.5407 17.0946 55.7347 17.2441 55.8847 17.433C56.0348 17.6219 56.1366 17.8445 56.1812 18.0816C56.2258 18.3187 56.2118 18.5631 56.1406 18.7936C56.0693 19.0241 55.9429 19.2337 55.7723 19.4044L50.6089 24.5962C50.4186 24.7869 50.1799 24.9221 49.9185 24.9874C49.6571 25.0528 49.3829 25.0457 49.1252 24.967C45.2783 23.7963 41.1626 23.8503 37.3478 25.1215C33.533 26.3927 30.2079 28.8183 27.833 32.0623C25.458 35.3064 24.1507 39.2084 24.0921 43.2281C24.0334 47.2478 25.2263 51.1863 27.5056 54.4983C29.7849 57.8102 33.0378 60.3317 36.8139 61.7136C40.59 63.0955 44.7024 63.2695 48.5818 62.2114C52.4611 61.1534 55.9155 58.9156 58.4665 55.808C61.0175 52.7005 62.5389 48.8768 62.8201 44.8665C62.8434 44.4938 63.0065 44.1436 63.2767 43.8858C63.5469 43.6281 63.9044 43.4816 64.2779 43.4758H70.9807C71.1806 43.4757 71.3785 43.5159 71.5625 43.5941C71.7465 43.6724 71.9128 43.787 72.0514 43.9311C72.19 44.0752 72.298 44.2458 72.369 44.4326C72.44 44.6195 72.4724 44.8188 72.4644 45.0185C72.1032 52.2682 69.0287 59.1172 63.8513 64.206Z" fill="#F33736"/>
</svg>
